<?xml version="1.0" encoding="utf-8"?>
<!-- Generator: Adobe Illustrator 24.0.2, SVG Export Plug-In . SVG Version: 6.00 Build 0)  -->
<svg version="1.1" id="Layer_1" xmlns="http://www.w3.org/2000/svg" xmlns:xlink="http://www.w3.org/1999/xlink" x="0px" y="0px"
	 viewBox="0 0 256.1314 286.6093" enable-background="new 0 0 256.1314 286.6093" xml:space="preserve">
<g>
	<path d="M56.0045,93.3398c11.0039-5.7686,15.249-19.3652,9.4795-30.3682c-5.7705-11.0029-19.3662-15.2461-30.3701-9.4785
		c-11.002,5.7696-15.2451,19.3662-9.4766,30.3692C31.4069,94.8662,45.0026,99.1093,56.0045,93.3398z"/>
	<path d="M17.1447,193.2734c1.1328,0,2.2837-0.2417,3.3779-0.7524c4.0034-1.8687,5.7344-6.6275,3.8662-10.6309
		c-6.2568-13.4004-8.394-23.6782-8.3882-31.3457c0.0117-6.2153,1.3462-10.7603,3.2168-14.3555
		c2.7964-5.3559,7.0571-8.7646,10.7842-10.8764c0.2524-0.1431,0.4917-0.2637,0.7368-0.3941l22.979,55.4849
		c0.3735,1.4365,1.1333,2.6665,2.1314,3.624c0.7348,1.0664,1.6401,2.04,2.7265,2.8657c0,0,0.001,0.001,0.002,0.0015
		c0.0073,0.0054,0.0151,0.0112,0.0224,0.0171c0.0801,0.062,0.3575,0.2837,0.816,0.6885c1.9301,1.6904,6.7524,6.3994,10.9511,13.8017
		c4.2066,7.4356,7.8667,17.4297,7.8809,30.5557c-0.0059,10.2168-2.2305,22.457-8.7031,37.0844
		c-2.7964,6.3121,0.0517,13.6963,6.3632,16.4927c1.6465,0.729,3.3667,1.0747,5.0581,1.0747
		c4.7945,0.0005,9.3677-2.7724,11.4346-7.4384c7.7339-17.4297,10.856-33.2886,10.8482-47.2134
		c0.02-21.1675-7.1997-37.4834-14.4229-48.2066c-0.292-0.434-0.583-0.8457-0.874-1.2627c2.3667,0.7705,4.9829,0.8516,7.542,0.0616
		l-0.0005-0.002c0.645-0.1904,6.2866-1.6816,13.0283-1.6631c6.6768-0.0097,13.9609,1.4146,19.584,5.564
		c2.8569,2.0986,5.4971,4.894,7.8535,9.1616c2.3389,4.2637,4.3623,10.0703,5.4639,18.0381
		c0.8637,6.2598,6.2236,10.793,12.3696,10.793c0.5684,0.0005,1.1426-0.0386,1.7217-0.1182
		c6.8389-0.9438,11.6167-7.2524,10.6748-14.0913c-1.4404-10.4483-4.2754-19.2949-8.3145-26.6519
		c-6.0151-11.0669-14.8911-18.4536-23.8955-22.4985c-9.0219-4.0981-17.9946-5.1855-25.4575-5.1953
		c-6.06,0.0132-11.1914,0.73-14.8071,1.4331l-11.0532-42.5576c1.8403,0.1406,3.833,0.2314,5.9638,0.2339
		c8.5996-0.0039,19.4258-1.4317,30.211-6.8516c10.7837-5.3887,21.3144-14.9268,28.7915-29.9604
		c1.9756-3.9512,0.3745-8.7574-3.5767-10.733c-3.9531-1.9755-8.7568-0.375-10.7324,3.5782
		c-6.1231,12.1626-13.7944,18.8159-21.6758,22.8237c-7.8789,3.9761-16.1777,5.1455-23.0176,5.1421
		c-4.2153,0-7.8423-0.4414-10.3501-0.8745c-1.2549-0.2173-2.23-0.4292-2.8613-0.5806c-0.3149-0.0737-0.5439-0.1343-0.6782-0.1709
		c-0.0679-0.0176-0.1109-0.0293-0.1299-0.0351l-0.0005,0.0009c-0.3574-0.105-0.7158-0.1738-1.0737-0.2275
		c-1.0982-0.2144-2.2583-0.2007-3.4136,0.0991l-37.3945,9.7129c-0.4751,0.123-0.9248,0.293-1.3535,0.4941
		c-2.5909,0.7559-8.7051,2.8819-15.1197,7.9141c-4.0176,3.1714-8.1328,7.5615-11.2099,13.4434
		c-3.083,5.8696-5.0518,13.186-5.0401,21.7739c0.0064,10.6392,2.9185,23.1675,9.8892,38.1103
		C11.2472,191.5639,14.1325,193.2734,17.1447,193.2734z"/>
	<polygon points="148.1118,107.4375 153.648,142.4248 192.7643,135.4189 173.7681,126.625 237.4117,71.9423 204.3873,65.1767 
		256.1314,13.9472 224.5952,0 171.4733,70.9404 200.1393,76.9404 164.4733,118.6064 	"/>
</g>
</svg>
