<svg width="100%" height="100%" viewBox="0 0 182 182" fill="none" xmlns="http://www.w3.org/2000/svg">
<g clip-path="url(#clip0_25_490)">
<path d="M35.4179 128.333L17.0952 165H35.4179L53.7407 128.333L50.4243 108.405L25.6885 99.1283L35.4179 128.333Z" fill="black"/>
<path d="M75.1172 30.5556C83.5501 30.5556 90.3862 23.7155 90.3862 15.2778C90.3862 6.84009 83.5501 0 75.1172 0C66.6844 0 59.8483 6.84009 59.8483 15.2778C59.8483 23.7155 66.6844 30.5556 75.1172 30.5556Z" fill="black"/>
<path d="M26.8223 15.8118L0.00390625 70.714L20.103 80.5432L46.9214 25.641L26.8223 15.8118Z" fill="black"/>
<path opacity="0.75" d="M182.336 67.6923H176.228L164.013 92.1368L145.69 104.359L133.475 128.803H121.26L90.7222 153.248H60.1842L47.9691 165.47H182.336V67.6923Z" fill="black"/>
<path d="M114.817 55V61.1111H96.4938L78.1711 42.7778L53.7407 30.5555L23.2028 91.6667L72.0635 110V146.667H84.2786L90.3862 103.889L61.0698 86.7717L72.0635 55L90.3862 73.3333L114.817 68.4444V122.222H120.924V55H114.817Z" fill="black"/>
</g>
<defs>
<clipPath id="clip0_25_490">
<rect width="182" height="182" fill="white"/>
</clipPath>
</defs>
</svg>
