<?xml version="1.0" standalone="no"?>
<!DOCTYPE svg PUBLIC "-//W3C//DTD SVG 20010904//EN"
 "http://www.w3.org/TR/2001/REC-SVG-20010904/DTD/svg10.dtd">
<svg version="1.0" xmlns="http://www.w3.org/2000/svg"
 width="754.000000pt" height="752.000000pt" viewBox="0 0 754.000000 752.000000"
 preserveAspectRatio="xMidYMid meet">

<g transform="translate(0.000000,752.000000) scale(0.100000,-0.100000)"
fill="#000000" stroke="none">
<path d="M5823 7509 c-22 -4 -58 -17 -80 -27 -56 -30 -178 -139 -263 -237
-315 -363 -486 -772 -509 -1219 l-6 -119 -230 -52 c-654 -150 -1442 -365
-1940 -530 -360 -119 -591 -220 -779 -342 -39 -25 -72 -41 -73 -36 -12 34
-105 183 -163 259 -85 111 -227 249 -283 274 -56 26 -139 25 -196 0 -27 -13
-83 -60 -145 -123 -337 -341 -496 -786 -445 -1244 36 -329 183 -641 422 -898
35 -39 89 -88 120 -110 l56 -40 1 -322 0 -323 90 0 90 0 0 323 0 324 22 10
c65 30 238 217 333 361 26 39 50 72 53 72 2 0 21 -13 41 -28 71 -56 222 -153
348 -224 234 -131 486 -245 1055 -477 163 -66 350 -144 415 -172 622 -269 744
-471 366 -609 -111 -40 -426 -120 -903 -230 -637 -146 -1128 -277 -1395 -371
-254 -89 -654 -273 -901 -414 -423 -243 -743 -534 -888 -808 -29 -54 -36 -80
-36 -123 l0 -54 979 0 978 0 22 52 c26 64 110 177 131 178 23 0 641 -118 647
-123 2 -3 -9 -24 -26 -48 -17 -23 -31 -46 -31 -51 0 -4 472 -8 1048 -8 l1048
0 111 50 c61 27 265 112 454 188 778 316 1084 462 1396 668 330 218 534 420
643 634 135 267 139 542 13 795 -77 154 -201 309 -342 426 -450 377 -1047 612
-2296 904 -853 199 -1163 289 -1380 398 -191 95 -266 171 -316 319 -26 78 -22
163 11 228 64 125 323 302 685 468 246 113 1208 513 1215 505 4 -4 13 -37 19
-73 46 -242 192 -560 367 -797 70 -95 272 -303 334 -344 l45 -30 5 -422 5
-422 113 -3 112 -3 0 421 0 420 43 26 c60 38 271 254 348 356 195 262 321 548
381 866 30 155 32 504 5 652 -40 217 -84 353 -177 545 -112 231 -241 407 -425
583 -143 136 -226 173 -342 151z m-1323 -1945 c0 -2 -161 -56 -357 -120 -600
-196 -870 -298 -1120 -421 l-113 -55 -57 22 c-32 13 -62 27 -67 31 -6 5 29 27
80 50 258 119 569 229 1174 412 373 113 375 114 418 99 23 -7 42 -16 42 -18z
m-2092 -1170 c19 -6 22 -13 22 -58 0 -120 58 -242 167 -357 152 -159 441 -314
863 -461 82 -29 150 -56 150 -60 0 -3 -45 -34 -99 -67 l-99 -62 -144 55 c-305
117 -514 217 -683 327 -179 117 -338 291 -379 417 -22 66 -38 190 -31 235 l7
37 101 0 c56 0 112 -3 125 -6z m2592 -1369 c564 -205 887 -402 1044 -639 66
-99 97 -185 104 -293 l5 -83 -75 0 c-41 0 -155 3 -254 6 l-179 7 -1 81 c-2
182 -109 342 -329 488 -116 77 -389 211 -580 283 -82 31 -154 60 -158 65 -9 8
209 149 231 150 7 0 94 -29 192 -65z m357 -1607 c112 -45 203 -86 203 -91 0
-18 -361 -177 -632 -278 -90 -34 -395 -139 -678 -234 -283 -95 -564 -191 -625
-213 l-110 -39 -202 116 c-111 65 -205 120 -208 123 -8 8 436 152 855 278 553
167 914 292 1105 384 39 19 74 35 80 35 5 1 101 -36 212 -81z"/>
</g>
</svg>
